<?xml version="1.0" encoding="UTF-8" standalone="no"?>
<svg width="97px" height="97px" viewBox="0 0 97 97" version="1.1" xmlns="http://www.w3.org/2000/svg" xmlns:xlink="http://www.w3.org/1999/xlink" xmlns:sketch="http://www.bohemiancoding.com/sketch/ns">
    <!-- Generator: Sketch 3.4.4 (17249) - http://www.bohemiancoding.com/sketch -->
    <title>Artboard 1</title>
    <desc>Created with Sketch.</desc>
    <defs></defs>
    <g id="Page-2" stroke="none" stroke-width="1" fill="none" fill-rule="evenodd" sketch:type="MSPage">
        <g id="Artboard-1" sketch:type="MSArtboardGroup" fill="#244356">
            <path d="M14.1238334,68.47559 C13.9060634,68.47559 13.6853534,68.43946 13.4675834,68.36426 L6.34356336,65.88965 C5.61504336,65.63672 5.09747336,64.98731 5.01251336,64.2207 L3.01251336,46.2207 C2.90997336,45.30664 3.44610336,44.44043 4.30939336,44.12304 L10.3103734,41.91406 C11.3465034,41.53418 12.4968934,42.06347 12.8777534,43.10058 C13.2595934,44.13671 12.7283434,45.28613 11.6912334,45.66796 L7.16096336,47.33593 L8.84846336,62.52441 L14.7801034,64.58496 C15.8230734,64.94824 16.3758034,66.08789 16.0135034,67.13086 C15.7263734,67.95703 14.9519534,68.47559 14.1238334,68.47559 L14.1238334,68.47559 Z" id="Shape" sketch:type="MSShapeGroup"></path>
            <path d="M81.9489934,68.23633 C81.1023134,68.23633 80.3161834,67.69336 80.0446934,66.84375 C79.7087534,65.79102 80.2898134,64.66602 81.3415734,64.33008 L87.1091534,62.48926 L88.7917734,47.35156 L84.3279034,45.75879 C83.2868834,45.3877 82.7448934,44.24317 83.1159934,43.20313 C83.4880634,42.16211 84.6374734,41.62305 85.6716534,41.99122 L91.6257534,44.11622 C92.4997734,44.42774 93.0437234,45.29884 92.9411834,46.22071 L90.9411834,64.22071 C90.8542734,65.00587 90.3142334,65.66505 89.5622734,65.90528 L82.5583634,68.14063 C82.3562234,68.20508 82.1511434,68.23633 81.9489934,68.23633 L81.9489934,68.23633 Z" id="Shape" sketch:type="MSShapeGroup"></path>
            <path d="M68.6345434,92.33594 C67.7605234,92.33594 66.9577834,91.75782 66.7097434,90.875 C66.4118934,89.81152 67.0320134,88.70801 68.0954834,88.40918 L74.9958734,86.47266 L74.9753634,77.77491 C74.9724334,76.67042 75.8659834,76.00001 76.9704834,76.00001 L76.9753634,76.00001 C78.0779034,76.00001 78.9724334,76.66261 78.9753634,77.76515 L78.9997734,88.11012 C79.0007534,88.64137 78.7907934,89.09364 78.4157934,89.46962 C78.1169634,89.76942 77.7341534,89.93501 77.3230234,90.0024 L69.1755634,92.27514 C68.9948934,92.3259 68.8132534,92.33594 68.6345434,92.33594 L68.6345434,92.33594 Z" id="Shape" sketch:type="MSShapeGroup"></path>
            <path d="M27.8875034,92.7334 C27.6921934,92.7334 27.4939534,92.7041 27.2976634,92.64356 L18.4587934,89.92286 C18.1335934,89.83009 17.8328134,89.65626 17.5896534,89.41407 C17.2146534,89.03809 16.9998134,88.5293 16.9998134,87.99903 L17.0056734,77.50782 C17.0066534,76.40333 17.9011834,75.5088 19.0056734,75.5088 L19.0066534,75.5088 C20.1111434,75.50978 21.0066534,76.40528 21.0056734,77.50978 L21.0007934,86.52052 L28.4754034,88.8213 C29.5310634,89.14552 30.1228634,90.26466 29.7976734,91.3213 C29.5330134,92.18066 28.7419934,92.7334 27.8875034,92.7334 L27.8875034,92.7334 Z" id="Shape" sketch:type="MSShapeGroup"></path>
            <path d="M63.9997734,56 C62.3455034,56 60.9998034,54.6543 60.9998034,53 C60.9998034,51.3457 62.3455034,50 63.9997734,50 C65.6540734,50 66.9997734,51.3457 66.9997734,53 C66.9997734,54.6543 65.6540734,56 63.9997734,56 L63.9997734,56 Z M63.9997734,52 C63.4480434,52 62.9998034,52.44824 62.9998034,53 C62.9998034,53.55176 63.4480434,54 63.9997734,54 C64.5515334,54 64.9997734,53.55176 64.9997734,53 C64.9997734,52.44824 64.5515334,52 63.9997734,52 L63.9997734,52 Z" id="Shape" sketch:type="MSShapeGroup"></path>
            <path d="M63.9997734,67 C56.2800734,67 49.9998034,60.71973 49.9998034,53 C49.9998034,45.28027 56.2800734,39 63.9997734,39 C71.7195034,39 77.9997734,45.28027 77.9997734,53 C77.9997734,60.71973 71.7195034,67 63.9997734,67 L63.9997734,67 Z M63.9997734,43 C58.4861334,43 53.9998034,47.48633 53.9998034,53 C53.9998034,58.51367 58.4861334,63 63.9997734,63 C69.5134434,63 73.9997734,58.51367 73.9997734,53 C73.9997734,47.48633 69.5134434,43 63.9997734,43 L63.9997734,43 Z" id="Shape" sketch:type="MSShapeGroup"></path>
            <path d="M63.9997734,67 C62.8953134,67 61.9998034,66.10449 61.9998034,65 L61.9998034,60 C61.9998034,58.89551 62.8953134,58 63.9997734,58 C65.1042634,58 65.9997734,58.89551 65.9997734,60 L65.9997734,65 C65.9997734,66.10449 65.1042634,67 63.9997734,67 L63.9997734,67 Z" id="Shape" sketch:type="MSShapeGroup"></path>
            <path d="M63.9997734,48 C62.8953134,48 61.9998034,47.10449 61.9998034,46 L61.9998034,41 C61.9998034,39.89551 62.8953134,39 63.9997734,39 C65.1042634,39 65.9997734,39.89551 65.9997734,41 L65.9997734,46 C65.9997734,47.10449 65.1042634,48 63.9997734,48 L63.9997734,48 Z" id="Shape" sketch:type="MSShapeGroup"></path>
            <path d="M69.9997734,65.34668 C68.8952834,65.34668 67.9997734,64.45117 67.9997734,63.34668 L67.9997734,43 C67.9997734,41.89551 68.8952834,41 69.9997734,41 C71.1042634,41 71.9997734,41.89551 71.9997734,43 L71.9997734,63.34668 C71.9997734,64.45117 71.1042634,65.34668 69.9997734,65.34668 L69.9997734,65.34668 Z" id="Shape" sketch:type="MSShapeGroup"></path>
            <path d="M57.9998034,65.34668 C56.8953134,65.34668 55.9998034,64.45117 55.9998034,63.34668 L55.9998034,42.56836 C55.9998034,41.46387 56.8953134,40.56836 57.9998034,40.56836 C59.1042934,40.56836 59.9998034,41.46387 59.9998034,42.56836 L59.9998034,63.34668 C59.9998034,64.45117 59.1043034,65.34668 57.9998034,65.34668 L57.9998034,65.34668 Z" id="Shape" sketch:type="MSShapeGroup"></path>
            <path d="M31.9998034,56 C30.3455034,56 28.9998034,54.6543 28.9998034,53 C28.9998034,51.3457 30.3455034,50 31.9998034,50 C33.6541034,50 34.9998034,51.3457 34.9998034,53 C34.9998034,54.6543 33.6541034,56 31.9998034,56 L31.9998034,56 Z M31.9998034,52 C31.4480434,52 30.9998034,52.44824 30.9998034,53 C30.9998034,53.55176 31.4480434,54 31.9998034,54 C32.5515634,54 32.9998034,53.55176 32.9998034,53 C32.9998034,52.44824 32.5515634,52 31.9998034,52 L31.9998034,52 Z" id="Shape" sketch:type="MSShapeGroup"></path>
            <path d="M31.9998034,67 C24.2800734,67 17.9998034,60.71973 17.9998034,53 C17.9998034,45.28027 24.2800734,39 31.9998034,39 C39.7195334,39 45.9998034,45.28027 45.9998034,53 C45.9998034,60.71973 39.7195334,67 31.9998034,67 L31.9998034,67 Z M31.9998034,43 C26.4861334,43 21.9998034,47.48633 21.9998034,53 C21.9998034,58.51367 26.4861334,63 31.9998034,63 C37.5134734,63 41.9998034,58.51367 41.9998034,53 C41.9998034,47.48633 37.5134734,43 31.9998034,43 L31.9998034,43 Z" id="Shape" sketch:type="MSShapeGroup"></path>
            <path d="M31.9998034,67 C30.8953134,67 29.9998034,66.10449 29.9998034,65 L29.9998034,60 C29.9998034,58.89551 30.8953134,58 31.9998034,58 C33.1042934,58 33.9998034,58.89551 33.9998034,60 L33.9998034,65 C33.9998034,66.10449 33.1043034,67 31.9998034,67 L31.9998034,67 Z" id="Shape" sketch:type="MSShapeGroup"></path>
            <path d="M31.9998034,48 C30.8953134,48 29.9998034,47.10449 29.9998034,46 L29.9998034,41 C29.9998034,39.89551 30.8953134,39 31.9998034,39 C33.1042934,39 33.9998034,39.89551 33.9998034,41 L33.9998034,46 C33.9998034,47.10449 33.1043034,48 31.9998034,48 L31.9998034,48 Z" id="Shape" sketch:type="MSShapeGroup"></path>
            <path d="M37.9998034,65.34668 C36.8953134,65.34668 35.9998034,64.45117 35.9998034,63.34668 L35.9998034,42.60547 C35.9998034,41.50098 36.8953134,40.60547 37.9998034,40.60547 C39.1042934,40.60547 39.9998034,41.50098 39.9998034,42.60547 L39.9998034,63.34668 C39.9998034,64.45117 39.1043034,65.34668 37.9998034,65.34668 L37.9998034,65.34668 Z" id="Shape" sketch:type="MSShapeGroup"></path>
            <path d="M25.9998034,65.34668 C24.8953134,65.34668 23.9998034,64.45117 23.9998034,63.34668 L23.9998034,42.60547 C23.9998034,41.50098 24.8953134,40.60547 25.9998034,40.60547 C27.1042934,40.60547 27.9998034,41.50098 27.9998034,42.60547 L27.9998034,63.34668 C27.9998034,64.45117 27.1043034,65.34668 25.9998034,65.34668 L25.9998034,65.34668 Z" id="Shape" sketch:type="MSShapeGroup"></path>
            <path d="M51.9978534,72.07129 C51.5798834,72.07129 51.1580134,71.94043 50.7976534,71.66992 L47.9421834,69.52148 L45.2341734,71.6455 C44.3660134,72.32812 43.1081934,72.1748 42.4255834,71.30566 C41.7439434,70.43652 41.8962834,69.17871 42.7654234,68.49707 L47.8914034,64.47852 L53.2019534,68.47266 C54.0847634,69.13672 54.2625034,70.39063 53.5984334,71.27344 C53.2048834,71.7959 52.6052734,72.07129 51.9978534,72.07129 L51.9978534,72.07129 Z" id="Shape" sketch:type="MSShapeGroup"></path>
            <path d="M56.9998034,87 L38.9998034,87 C37.8953134,87 36.9998034,86.10449 36.9998034,85 L36.9998034,79 C36.9998034,77.89551 37.8953134,77 38.9998034,77 L56.9998034,77 C58.1042934,77 58.9998034,77.89551 58.9998034,79 L58.9998034,85 C58.9998034,86.10449 58.1043034,87 56.9998034,87 L56.9998034,87 Z M40.9998034,83 L54.9998034,83 L54.9998034,81 L40.9998034,81 L40.9998034,83 L40.9998034,83 Z" id="Shape" sketch:type="MSShapeGroup"></path>
            <path d="M73.9997734,84 L56.9998034,84 C55.8953134,84 54.9998034,83.10449 54.9998034,82 C54.9998034,80.89551 55.8953134,80 56.9998034,80 L72.9099334,80 C79.5134534,71.22754 82.9997734,58.80469 82.9997734,44 C82.9997734,30.87695 71.7849334,16.92969 50.9998034,16.92969 L44.9998034,16.92969 C24.2146434,16.92969 12.9998034,30.87696 12.9998034,44 C12.9998034,58.80469 16.4861334,71.22754 23.0896434,80 L38.9998034,80 C40.1042934,80 40.9998034,80.89551 40.9998034,82 C40.9998034,83.10449 40.1042934,84 38.9998034,84 L21.9998034,84 C21.1716834,84 20.4314434,83.49023 20.1345734,82.72168 C12.8474634,73.22852 8.99980336,59.85645 8.99980336,44 C8.99980336,28.9375 21.6169934,12.92969 44.9998034,12.92969 L50.9998034,12.92969 C74.3825834,12.92969 86.9997734,28.9375 86.9997734,44 C86.9997734,59.92871 83.1159834,73.35156 75.7644234,82.85254 C75.4372734,83.53711 74.7702834,84 73.9997734,84 L73.9997734,84 Z" id="Shape" sketch:type="MSShapeGroup"></path>
            <path d="M64.2458734,97 L32.1541034,97 C29.5037134,97 27.1990234,95.29785 26.4197234,92.76562 L23.2888634,82.58789 C22.9636634,81.53223 23.5564434,80.41309 24.6121034,80.08887 C25.6609334,79.76172 26.7869034,80.35449 27.1111234,81.41211 L30.2419834,91.58887 C30.5027234,92.43262 31.2703034,93 32.1540934,93 L64.2458634,93 C65.1296534,93 65.8972334,92.43262 66.1560234,91.58887 L69.2888334,81.41211 C69.6140334,80.35449 70.7370734,79.76172 71.7878534,80.08887 C72.8435134,80.41309 73.4362934,81.53223 73.1110934,82.58789 L69.9792534,92.76465 C69.2009434,95.29785 66.8972334,97 64.2458734,97 L64.2458734,97 Z" id="Shape" sketch:type="MSShapeGroup"></path>
            <path d="M84.9997734,44 C83.8952834,44 82.9997734,43.10449 82.9997734,42 C82.9997734,22.29004 66.6443034,5 47.9998034,5 C29.3552734,5 12.9998034,22.29004 12.9998034,42 C12.9998034,43.10449 12.1042934,44 10.9998034,44 C9.89531336,44 8.99980336,43.10449 8.99980336,42 C8.99980336,20.15918 27.2244134,1 47.9998034,1 C68.7751634,1 86.9997734,20.15918 86.9997734,42 C86.9997734,43.10449 86.1042634,44 84.9997734,44 L84.9997734,44 Z" id="Shape" sketch:type="MSShapeGroup"></path>
            <path d="M47.9998034,12 C46.3455034,12 44.9998034,10.6543 44.9998034,9 C44.9998034,7.3457 46.3455034,6 47.9998034,6 C49.6541034,6 50.9998034,7.3457 50.9998034,9 C50.9998034,10.6543 49.6541034,12 47.9998034,12 L47.9998034,12 Z M47.9998034,8 C47.4480434,8 46.9998034,8.44824 46.9998034,9 C46.9998034,9.55176 47.4480434,10 47.9998034,10 C48.5515634,10 48.9998034,9.55176 48.9998034,9 C48.9998034,8.44824 48.5515634,8 47.9998034,8 L47.9998034,8 Z" id="Shape" sketch:type="MSShapeGroup"></path>
        </g>
    </g>
</svg>